<svg width="26" height="26" viewBox="0 0 26 26" fill="none" xmlns="http://www.w3.org/2000/svg">
<path d="M4.61121 17.9765C3.40149 15.9356 2.97834 13.5232 3.42121 11.1923C3.86408 8.86146 5.14251 6.77239 7.0165 5.31732C8.89048 3.86224 11.2311 3.14122 13.5991 3.28962C15.967 3.43802 18.1993 4.44563 19.877 6.12328C21.5546 7.80094 22.5622 10.0333 22.7106 12.4012C22.859 14.7691 22.138 17.1098 20.6829 18.9838C19.2279 20.8577 17.1388 22.1362 14.8079 22.5791C12.4771 23.0219 10.0647 22.5988 8.02371 21.389V21.389L4.65184 22.3437C4.51369 22.3841 4.36722 22.3866 4.22777 22.351C4.08832 22.3153 3.96104 22.2428 3.85926 22.141C3.75749 22.0392 3.68496 21.9119 3.64929 21.7725C3.61362 21.633 3.61612 21.4866 3.65652 21.3484L4.61121 17.9765Z" stroke="#9F9F9F" stroke-width="1.5" stroke-linecap="round" stroke-linejoin="round"/>
<path d="M13 14.0156C13.5609 14.0156 14.0156 13.5609 14.0156 13C14.0156 12.4391 13.5609 11.9844 13 11.9844C12.4391 11.9844 11.9844 12.4391 11.9844 13C11.9844 13.5609 12.4391 14.0156 13 14.0156Z" fill="#9F9F9F"/>
<path d="M17.875 14.0156C18.4359 14.0156 18.8906 13.5609 18.8906 13C18.8906 12.4391 18.4359 11.9844 17.875 11.9844C17.3141 11.9844 16.8594 12.4391 16.8594 13C16.8594 13.5609 17.3141 14.0156 17.875 14.0156Z" fill="#9F9F9F"/>
<path d="M8.125 14.0156C8.68591 14.0156 9.14062 13.5609 9.14062 13C9.14062 12.4391 8.68591 11.9844 8.125 11.9844C7.56409 11.9844 7.10938 12.4391 7.10938 13C7.10938 13.5609 7.56409 14.0156 8.125 14.0156Z" fill="#9F9F9F"/>
</svg>
