<svg width="22" height="18" viewBox="0 0 22 18" fill="none" xmlns="http://www.w3.org/2000/svg">
<path d="M11 17.25C11 17.25 1.625 12 1.625 5.62501C1.625 4.49803 2.01546 3.40585 2.72996 2.53431C3.44445 1.66277 4.43884 1.0657 5.54393 0.844677C6.64903 0.623658 7.79657 0.792346 8.79131 1.32204C9.78605 1.85174 10.5665 2.70972 11 3.75001V3.75001C11.4335 2.70972 12.2139 1.85174 13.2087 1.32204C14.2034 0.792346 15.351 0.623658 16.4561 0.844677C17.5612 1.0657 18.5555 1.66277 19.27 2.53431C19.9845 3.40585 20.375 4.49803 20.375 5.62501C20.375 12 11 17.25 11 17.25Z" stroke="#FF0B0B" stroke-width="1.5" stroke-linecap="round" stroke-linejoin="round"/>
</svg>
