<svg width="22" height="22" viewBox="0 0 22 22" fill="none" xmlns="http://www.w3.org/2000/svg">
<path d="M2.61121 15.9765C1.40149 13.9356 0.97834 11.5232 1.42121 9.19232C1.86408 6.86146 3.14251 4.77239 5.0165 3.31732C6.89048 1.86224 9.23115 1.14122 11.5991 1.28962C13.967 1.43802 16.1993 2.44563 17.877 4.12328C19.5546 5.80094 20.5622 8.03327 20.7106 10.4012C20.859 12.7691 20.138 15.1098 18.6829 16.9838C17.2279 18.8577 15.1388 20.1362 12.8079 20.5791C10.4771 21.0219 8.0647 20.5988 6.02371 19.389V19.389L2.65184 20.3437C2.51369 20.3841 2.36722 20.3866 2.22777 20.351C2.08832 20.3153 1.96104 20.2428 1.85926 20.141C1.75749 20.0392 1.68496 19.9119 1.64929 19.7725C1.61362 19.633 1.61612 19.4866 1.65652 19.3484L2.61121 15.9765Z" stroke="#9F9F9F" stroke-width="1.5" stroke-linecap="round" stroke-linejoin="round"/>
</svg>
